<?xml version="1.0" encoding="utf-8"?>
<!-- Generator: Adobe Illustrator 26.0.3, SVG Export Plug-In . SVG Version: 6.00 Build 0)  -->
<svg version="1.0" id="katman_1" xmlns="http://www.w3.org/2000/svg" xmlns:xlink="http://www.w3.org/1999/xlink" x="0px" y="0px"
	 viewBox="0 0 600 450" style="enable-background:new 0 0 600 450;" xml:space="preserve">
<style type="text/css">
	.st0{fill:#E73A2E;}
	.st1{fill:#040506;}
</style>
<g transform="translate(55 22)">
	<path class="st0" d="M229.7,149.1c-3.1-5.8-3-14-2.5-17.9c0.6-5,3.2-9.5,4.1-14.5c0.5-3.1,0.6-6.6-1.2-8.9
		c-1.4-1.8-3.5-4.9-4.2-7.4c-0.7-2.3-2.3-3-4.5-2.6c-2.9,0.5-5.9-3-8.7-2.8c-3,0.2-3.8,3.3-6.6,4.5c-1.1,0.5-1.7,2.3-3.6,1.3
		c-0.6-0.3-2.7-2.5-3.3-2c-1.6,1.4-0.7,3.4-2.8,6.2c-2.4,3.2-6.9,4.6-10.5,6.6c-2.9,1.6-6.2,2.4-8.9,4.2c-8.6,6-9.2-0.4-1.2-1.8
		c2.6-0.4,3.8-3.6,5.9-5.4c1.2-1,1.2-3,0.6-4.7c-0.7-2.1-1.9-4.1-4.5-6.1c-1.1-0.8-1.1-3.1,1.1-3.6c1.4-0.3,3.1-1.7,3.2-3.2
		c0.2-1.3-2.4-1.8-2.5-4c-0.1-1.8,1.9-2.2,3.2-3.5c2.2-2,4.4,0.3,5.8-1.1c1.4-1.4-1.4-3.8,0.1-5c4.6-3.7,8.8-8.9,14.3-11.4
		c2.2-1,3.9,0,6.4,0.7c2.5,0.7,6.3-0.2,9.1,0.3c2.3,0.4,5.5-1.3,7.2-2.8c3.4-3.1,8.8-4.1,12.1-1c1.1,1.1,3,0.4,4.4,0.9
		c2.1,0.6,3.9,2.1,6.1,2.4c2.1,0.2,4.2-0.8,6.4-0.7c2,0,3.8,1.3,5.7,1.2c1.9,0,3.7-2.2,5.4-1.5c2.7,1.1,5.1,3.1,6.2,5.4
		c0.6,1.2,3.8,1.4,4,0.2c0.5-1.8,0.4-5.5,3.3-4.6c3.5,1,5.6,4.2,8.1,6.8c1,1,2.6,2.5,1.3,5.1c-0.5,1.1,0.6,2.4,1.7,3.1
		c1,0.6,2.3-2.1,3.5-2.3c2-0.4,4.2,1.8,4.7,3.5c0.3,1.3-1.8,3.3-3.2,4.2c-4,2.4-7.6,3.9-10.6,7.2c-1.6,1.8-0.5,5.2,0.3,7.2
		c1,2.6,4.9,3.3,7.2,4.9c3.1,2.1,5.6,4.5,8.9,6.3c1.8,1,4.5,2.7,5.9,1.2c1.3-1.3-1.6-3.3-2-5.2c-0.3-1.5-0.9-3.5,0-4.7
		c1.8-2.2,0.3-5.9,1-8.6c0.6-2.5,3.2-0.6,4.9,0c1.2,0.4,2.9-0.6,3.9-0.2c3.1,1.2,3.9,4.9,6.1,7.4c2.3,2.6,1.1,5.8,3.3,9.3l41.2-16.3
		C335.9,61.5,292.3,40.2,244,40.2c-89.9,0-163.1,73.3-163.1,163.1c0,1.5,0,3.1,0,4.6l4.7-1.9c1.1-52.6,20.6-85,45.9-110.8
		c7-0.9,11.6-3.6,15.4-5.6c1.7-0.9,3.8,0,5.6,0.3c2.6,0.4,5.8,0,7.7,1.8c1.9,1.9-0.3,2.9-1.8,3.9c-3.7,2.6-6.9,4.9-9.5,6.3
		c-1.9,1-5.3,6.6-3.2,6.7c3.3,0.2,4.6,2.1,0,4.9c-4.1,2.6-6.4,6.7-8.8,11c-0.9,1.6-0.7,3.5-0.7,5.3c0,2.3,0.4,4.5,0.7,6.7
		c0.3,3.6-0.5,6.7-3.5,8.1c-3.1,1.5-5.9,2.9-6.7-0.7c-1.6-6.8,0.2-11.1,2.4-14.2c2-2.6-2.1-5.7-4.2-3.2c-0.8,1-2.9,4-3.8,2.1
		c-0.8-1.6-5.2,5.2-8.1,8.8c-4.1,5.2-4.8,11.7-7,18c0.1,2.1,1.1,3.3,3.2,3.5c0.8-0.9,1.6-1.9,2.4-2.8c-0.4,6-1.7,11-2.8,15.1
		c-2,7.7-7.8,9.4-9.9,14.8c-2.4,6.6-2.5,11.6-1.8,15.1l12.5-4.9c0.8-1.8,1.5-3.7,1.8-5.7c0.5-3.8,1.4-7.4,2.2-11.2
		c3.6,3.1,7.7,1.9,10.7,2.8c2.7,0.8,4.2,3.3,5.5,6.1L229.7,149.1L229.7,149.1z M297,238.2c0,6,1.2,12.4,6.2,16.5c6.2,5,6,2.8,8,5.2
		c1.9,2.4,2.6,11.9,2,19.3c-0.6,7.4-2.1,14.3-5.5,21c-3.3,6.7-1.6,13.1-2.4,19c-0.8,5.9-4.2,1-3.9,10.4c0.3,9.3-0.5,5.7,0.2,8.8
		c0.7,3.1,1.4,5.2,4.1,4.8c2.7-0.4,3.1-4.8,5-6.8c1.9-2,3.8-2.5,4.9-4.9c1.1-2.4-1.1-7.8,0.8-9.2c1.9-1.4,8-7.6,9.8-10.5
		c1.8-2.8-0.6-3.8,0.8-4.4c2.5-1.3,4.8-3.1,6.6-5.2c2.2-2.7,6.1-0.8,8.8-4.8c2.7-4-1.8-3.8,0.5-6.2c2.3-2.3,4.6,1.1,12.1-5.6
		c7.5-6.7,2.8-7,6.4-10.6c3.6-3.6,11.1-6.2,14.6-11.1c3.5-4.9,1.1-10.9,3.5-16.4c2.4-5.5,12.3-9.8,10.6-16.2
		c-1.7-6.4-12.2-8-16.1-13c-2.3-2.9-3.4-5.9-4.3-8.9l37.3-14.7c0.2,2.8,0.2,5.7,0.2,8.6c0,89.9-73.3,163.2-163.1,163.2
		c-49.8,0-94.5-22.5-124.5-57.9l30.9-12.3c3.2,2.7,7.4,5.2,9.2,8.7c1.8,3.4,1,7.5,0.5,11.8c-0.3,2.2,0.4,3.9,2.3,5.1
		c1.6,1,3.2-0.3,5.1-0.7c0.8-0.2,0.5,1.7,1.7,1.7c4.2,0.1,7.7-3.1,11.7-3.4c3.5-0.2,6.1,1.6,8.3,3.6c1,0.8,1.4,3.3,2.8,3.5
		c1.5,0.3,2.7-1.9,4.2-2.2c1-0.1,2.6,0.6,2.8,1.6c0.2,1-2,2.5-1.3,3.3c1.1,1.3,2.5,2.5,3.4,4.4c0.7,1.4,1.9-0.6,3.5-0.3
		c1.5,0.3,2.4,1.6,4.2,1.7c1.9,0.1,3.2-2.1,4.2-3.7c1.1-1.7,3.1-1.8,4.1-4c0.5-1.1,1.6-1.6,2.5-2.5c0.6-0.6,2.5-1.9,2.5-3.3
		c0-2.2,0-3.2,0-5.4c-0.2-3.3-0.7-6.1-2.3-9c-1.5-2.7-4.2-3.5-5.7-6.5c-0.6-1.4,0.2-3.6-0.3-5c-0.3-1.1-2.7-1.9-2.4-3.1
		c0.6-2.1-1.1-3-1-4.7c0.1-2.2-1-4.5-2-3.9c-2.5,1.4-4.6,4.9-5.7,8.1c-0.4,1.4-1.6,3.2-3.1,3.2c-2.1,0-4.2-2-5.6-3.5
		c-2.9-3-5.3-6.3-7.7-9.7L297,238.2z"/>
	<path class="st1" d="M417.5,74.6c7.9-3.2,14.4,1.2,14.4,9.7v85.2c0,8.5-6.5,18-14.4,21.1L72.7,327.2c-7.9,3.1-14.4-1.3-14.4-9.7
		v-85.2c0-8.5,6.5-17.9,14.4-21.1L417.5,74.6z M122.8,220.5c-0.4-7.7-6.5-9.6-12.8-7c-9.8,3.8-19.6,7.5-29.4,11.2l-0.8,79.5l33-12.7
		c5.6-2.1,9.2-5.1,9.5-13.8v-22.2c-0.2-3.5-3.1-4.7-6.6-4.8c3.9-1,6.4-3.8,6.9-9.2C122.7,234.4,122.7,227.4,122.8,220.5L122.8,220.5
		z M108.4,260.8l-0.2,18.3l-13.5,5.4l0.2-19.1L108.4,260.8z M168.1,191.3l-33,12.5l-0.8,79.3l33.5-12.7L168,256l-19,7.7l0.2-19
		l17.2-6.7l0.1-13.5l-17.2,6.4l0.2-17l18.5-6.7L168.1,191.3z M223.2,183.4c0.2-7.9-6-11.8-13.8-7.9l-18.5,7.1
		c-5.5,2.4-9.3,7.1-10,15.7l-0.6,54.1c0,8.9,4.6,10.7,11.7,8.4c7-2.7,13.9-5.4,20.8-8c5.9-3.3,10.4-7.3,9.8-14.1
		c0.1-5.7,0.1-11.3,0.2-17c-4.7,1.7-9.5,3.3-14.2,5.1l-0.1,10.8c0,2-0.8,3.2-1.9,4c-3,1.4-6.2,2.8-9.3,4.2c-2.1,0.8-2.8-0.1-2.7-2.8
		L195,199c-0.1-1.3,0.5-2.9,2.5-3.6c2.7-1,5.4-2,8-3c2.6-1.2,2.8,0.4,2.7,2.5c0,2.9-0.1,5.7-0.1,8.6c5-1.9,9.9-3.8,14.8-5.7
		L223.2,183.4z M108.8,229.3l-0.2,17.5l-13.5,5.4l0.2-17.5L108.8,229.3z M278.2,149.2l-15.1,5.9l-0.3,29.7l-13.6,4.8l0.3-29.4
		l-15.1,5.8l-0.9,78.8l14.8-6l0.3-32.4l14.1-5.1l-0.3,32.3l15-5.5L278.2,149.2L278.2,149.2z M325.7,131l-40.7,15.6l-0.1,15l12.7-5.1
		l-0.7,63.6l13.8-5.4l0.7-63l14.2-5.7L325.7,131z M365.5,115.6l-32.9,12.5l-0.9,79.2l33.5-12.7l0.1-14.3l-19,7.7l0.2-19l17.2-6.7
		l0.2-13.5l-17.2,6.4l0.2-17l18.4-6.7L365.5,115.6z M392.1,105.7l-14.8,5.5l-0.8,78.2l33.2-13l0.2-13.8l-18.4,7.5L392.1,105.7z"/>
</g>
</svg>
