
<svg xmlns="http://www.w3.org/2000/svg" width="127.426mm" height="28.320999mm" viewBox="0 0 127.426 28.320999" version="1.1" id="svg334">
  <defs id="defs328"></defs>
  <g id="layer1" style="fill:#e30513">
    <path d="m 81.063402,11.306521 v 5.563307 c 0,1.11125 -0.41557,2.05669 -1.60338,2.05669 -1.18639,0 -1.60196,-0.94544 -1.60196,-2.05669 v -5.563307 h -3.2639 v 5.831417 c 0,2.24367 1.57021,4.29683 4.86586,4.29683 3.29636,0 4.86728,-2.05316 4.86728,-4.29683 v -5.831417 z" id="path130"></path>
    <path d="M 8.843434,21.156078 V 15.303494 H 3.383492 v 5.852584 H 0 V 7.154327 h 3.383492 v 5.298722 H 8.843434 V 7.154327 h 3.382433 v 14.001751 z" id="path132"></path>
    <path d="m 19.50579,21.473578 c -2.967214,0 -5.458884,-2.05669 -5.458884,-5.28108 0,-3.224393 2.49167,-5.199949 5.458884,-5.199949 2.987322,0 5.479698,1.975556 5.479698,5.199949 0,3.22439 -2.492376,5.28108 -5.479698,5.28108 z m 0,-7.792862 c -1.522942,0 -2.314575,1.245306 -2.314575,2.511782 0,1.26647 0.811389,2.55411 2.334683,2.55411 1.523648,0 2.334331,-1.28764 2.334331,-2.55411 0,-1.266476 -0.830792,-2.511782 -2.354439,-2.511782 z" id="path134"></path>
    <path d="m 39.229244,21.156078 v -5.379862 c 0,-1.125361 -0.257528,-2.074333 -1.404761,-2.074333 -1.108075,0 -1.641475,1.026583 -1.641475,2.134305 v 5.31989 h -3.243792 v -5.616223 c 0,-1.125361 -0.437092,-1.837972 -1.405114,-1.837972 -1.027995,0 -1.622072,0.927805 -1.622072,2.113139 v 5.341056 h -3.264253 v -9.849557 h 3.144308 v 1.365251 h 0.03951 c 0.455436,-0.829028 1.465086,-1.640417 2.94887,-1.640417 1.423458,0 2.413706,0.610305 2.966861,1.68275 0.653345,-1.030111 1.682045,-1.68275 3.145014,-1.68275 2.670881,0 3.581753,2.173111 3.581753,4.03225 v 6.092473 z" id="path136"></path>
    <path d="m 54.096359,19.452158 c -0.934861,1.29823 -2.458156,2.02142 -4.419248,2.02142 -2.966508,0 -5.421489,-1.87678 -5.421489,-5.19995 0,-3.224384 2.335742,-5.281079 5.322712,-5.281079 2.9083,0 4.94665,1.996723 4.94665,5.358699 0,0.25752 0,0.53622 -0.02046,0.77258 h -7.14234 c 0.09948,1.08656 1.18745,1.85914 2.354792,1.85914 0.991659,0 1.690864,-0.4057 2.130073,-0.97014 z m -2.559403,-4.34622 c 0,-1.030111 -0.652992,-1.880305 -1.938867,-1.880305 -1.246717,0 -2.156531,0.871361 -2.235906,1.880305 z" id="path138"></path>
    <path d="m 92.477522,14.213411 c -0.51399,-0.493889 -1.26576,-0.889001 -2.0581,-0.889001 -0.61242,0 -1.22555,0.218723 -1.22555,0.790223 0,0.553861 0.53375,0.716139 1.79881,0.991305 1.50495,0.335139 3.14607,1.08656 3.14607,3.00567 0,2.49061 -2.19427,3.36197 -4.21393,3.36197 -1.60267,0 -3.26319,-0.53269 -4.29189,-1.52047 l 1.81892,-1.91911 c 0.57397,0.63147 1.46544,1.10772 2.41371,1.10772 0.53481,0 1.16804,-0.21872 1.16804,-0.8502 0,-0.61383 -0.61418,-0.81139 -1.95827,-1.12889 -1.36701,-0.3175 -2.86914,-1.00894 -2.86914,-2.868079 0,-2.353027 2.21509,-3.302 4.0954,-3.302 1.46367,0 2.98697,0.472722 3.9557,1.382889 z" id="path140"></path>
    <path d="m 69.173022,6.685132 v 14.470946 h 3.28366 V 6.685132 Z" id="path142"></path>
    <path d="m 59.697412,25.223608 v -5.15409 h 0.0381 c 0.614539,0.8502 1.781881,1.36525 2.987675,1.36525 2.967565,0 4.688065,-2.49061 4.688065,-5.24227 0,-2.748143 -1.79987,-5.161143 -4.668309,-5.161143 -1.443567,0 -2.551642,0.691444 -3.145367,1.481667 h -0.05856 v -1.206501 h -3.0861 v 13.917087 z m 2.25425,-11.542892 c 1.54305,0 2.314928,1.245306 2.314928,2.511782 0,1.28763 -0.771878,2.55411 -2.314928,2.55411 -1.463675,0 -2.373489,-1.24884 -2.373489,-2.53295 0,-1.245303 0.909814,-2.532942 2.373489,-2.532942 z" id="path144"></path>
    <path d="m 120.34521,7.076716 v 14.164032 c 0,3.90172 -3.17606,7.08025 -7.0792,7.08025 -3.90313,0 -7.07813,-3.17853 -7.07813,-7.08025 V 7.076716 C 106.18788,3.175 109.36288,0 113.26601,0 c 3.90314,0 7.0792,3.175 7.0792,7.076716 z m -12.20964,14.164032 c 0,2.82927 2.30187,5.12939 5.13044,5.12939 2.82999,0 5.13045,-2.30012 5.13045,-5.12939 V 7.076716 c 0,-2.829271 -2.30046,-5.129383 -5.13045,-5.129383 -2.82857,0 -5.13044,2.300112 -5.13044,5.129383 z" id="path148"></path>
    <path d="m 120.34697,21.237218 h -14.16262 c -3.90278,0 -7.078478,-3.175 -7.078478,-7.076724 0,-3.90525 3.175698,-7.080251 7.078478,-7.080251 h 14.16262 c 3.90278,0 7.07919,3.175001 7.07919,7.080251 0,3.901724 -3.17641,7.076724 -7.07919,7.076724 z M 106.18435,9.027577 c -2.82857,0 -5.13045,2.303639 -5.13045,5.132917 0,2.829274 2.30188,5.129394 5.13045,5.129394 h 14.16262 c 2.82998,0 5.13045,-2.30012 5.13045,-5.129394 0,-2.829278 -2.30047,-5.132917 -5.13045,-5.132917 z" id="path150"></path>
  </g>
</svg>