<?xml version="1.0" encoding="UTF-8" standalone="no"?>
<!-- Created with Inkscape (http://www.inkscape.org/) -->

<svg
   version="1.1"
   id="svg131"
   xml:space="preserve"
   width="298.03253"
   height="92.974663"
   viewBox="0 0 298.03253 92.974664"
   xmlns="http://www.w3.org/2000/svg"
   xmlns:svg="http://www.w3.org/2000/svg"><defs
     id="defs135"><clipPath
       clipPathUnits="userSpaceOnUse"
       id="clipPath145"><path
         d="M 0,145.333 H 305.333 V 0 H 0 Z"
         id="path143" /></clipPath></defs><g
     id="g137"
     transform="matrix(1.3333333,0,0,-1.3333333,-50.232799,147.26453)"><g
       id="g139"><g
         id="g141"
         clip-path="url(#clipPath145)"><g
           id="g147"
           transform="translate(162.4928,64.8656)"><path
             d="m 0,0 c -4.588,0 -8.083,4.659 -8.083,10.38 0,5.734 3.495,10.378 8.083,10.378 4.596,0 8.083,-4.644 8.083,-10.378 C 8.083,4.659 4.596,0 0,0 m 0,23.607 c -9.578,0 -15.312,-5.917 -15.312,-13.227 0,-7.306 5.734,-13.213 15.312,-13.213 9.578,0 15.328,5.907 15.328,13.213 0,7.31 -5.75,13.227 -15.328,13.227"
             style="fill:#e60013;fill-opacity:1;fill-rule:nonzero;stroke:none"
             id="path149" /></g><g
           id="g151"
           transform="translate(179.1186,84.5738)"><path
             d="m 0,0 h 10.089 v -21.451 h 7.602 V 0 h 8.506 V 2.924 H 0 Z"
             style="fill:#e60013;fill-opacity:1;fill-rule:nonzero;stroke:none"
             id="path153" /></g><g
           id="g155"
           transform="translate(208.0925,84.5738)"><path
             d="m 0,0 h 8.501 v -21.451 h 7.595 V 0 H 26.19 V 2.924 H 0 Z"
             style="fill:#e60013;fill-opacity:1;fill-rule:nonzero;stroke:none"
             id="path157" /></g><g
           id="g159"
           transform="translate(132.0526,67.4902)"><path
             d="m 0,0 v 20.008 h -7.289 v -21.47 c 0,-1.606 1.298,-2.905 2.903,-2.905 h 18.643 v 2.919 H 1.46 C 0.658,-1.448 0,-0.803 0,0"
             style="fill:#e60013;fill-opacity:1;fill-rule:nonzero;stroke:none"
             id="path161" /></g><g
           id="g163"
           transform="translate(247.17,84.6142)"><path
             d="M 0,0 H 14.029 V 2.884 H -5.853 c -1.603,0 -2.906,-1.291 -2.906,-2.898 v -18.572 c 0,-1.606 1.303,-2.903 2.906,-2.903 h 19.882 v 2.882 H 0 c -0.813,0 -1.449,0.656 -1.449,1.447 v 7.183 h 15.25 v 2.862 h -15.25 v 5.672 C -1.449,-0.647 -0.813,0 0,0"
             style="fill:#e60013;fill-opacity:1;fill-rule:nonzero;stroke:none"
             id="path165" /></g><g
           id="g167"
           transform="translate(86.8956,46.6394)"><path
             d="m 0,0 c -7.896,-7.896 -20.816,-7.896 -28.712,0 l -14.587,14.587 c -7.896,7.896 -7.896,20.817 0,28.713 l 14.587,14.587 c 7.896,7.896 20.816,7.896 28.712,0 L 14.587,43.3 c 7.896,-7.896 7.896,-20.817 0,-28.713 z"
             style="fill:#e60013;fill-opacity:1;fill-rule:nonzero;stroke:none"
             id="path169" /></g><g
           id="g171"
           transform="translate(63.8881,54.1555)"><path
             d="m 0,0 c -1.16,0 -2.105,0.908 -2.153,2.066 -0.023,0.576 0.178,1.127 0.568,1.551 0.39,0.424 0.922,0.671 1.498,0.694 C 1.1,4.368 2.108,3.436 2.158,2.245 2.207,1.057 1.28,0.051 0.092,0.002 0.061,0.001 0.031,0 0,0"
             style="fill:#ffffff;fill-opacity:1;fill-rule:nonzero;stroke:none"
             id="path173" /></g><g
           id="g175"
           transform="translate(71.737,93.9738)"><path
             d="m 0,0 c -1.184,0 -2.132,-0.37 -2.898,-1.132 -1.654,-1.644 -2.522,-5.038 -2.445,-9.555 0.093,-5.569 1.42,-16.495 5.8,-22.121 0.71,-0.91 1.473,-1.638 2.269,-2.163 0.771,-0.511 1.637,-1.008 2.988,-1.008 0.366,0 0.76,0.037 1.17,0.111 2.512,0.602 5.658,3.398 7.998,7.119 0.357,0.567 0.97,0.905 1.64,0.905 0.363,0 0.718,-0.102 1.027,-0.297 0.438,-0.275 0.742,-0.704 0.857,-1.208 0.115,-0.505 0.027,-1.023 -0.249,-1.459 -2.959,-4.706 -6.865,-8.011 -10.45,-8.84 -0.012,-0.005 -0.051,-0.013 -0.089,-0.02 -0.658,-0.12 -1.304,-0.182 -1.919,-0.182 -2.312,0 -3.943,0.881 -5.105,1.648 -1.149,0.76 -2.222,1.775 -3.19,3.016 -6.166,7.919 -6.588,22.766 -6.616,24.433 -0.067,3.951 0.502,9.304 3.588,12.367 1.506,1.494 3.393,2.252 5.608,2.252 l 0.36,-10e-4 c 2.221,0 4.11,-0.757 5.615,-2.251 3.086,-3.063 3.655,-8.416 3.589,-12.367 -0.07,-4.117 -0.825,-12.09 -5.093,-19.239 -0.348,-0.581 -0.985,-0.942 -1.663,-0.942 -0.349,0 -0.691,0.095 -0.99,0.273 -0.914,0.546 -1.215,1.737 -0.67,2.654 2.988,5.002 4.432,10.506 4.546,17.32 0.077,4.519 -0.792,7.912 -2.446,9.555 C 2.466,-0.37 1.52,0 0.34,0 Z"
             style="fill:#ffffff;fill-opacity:1;fill-rule:nonzero;stroke:none"
             id="path177" /></g></g></g></g></svg>
