<?xml version="1.0" encoding="utf-8"?>
<!-- Generator: Adobe Illustrator 26.0.0, SVG Export Plug-In . SVG Version: 6.00 Build 0)  -->
<svg version="1.1" id="Layer_1" xmlns="http://www.w3.org/2000/svg" xmlns:xlink="http://www.w3.org/1999/xlink" x="0px" y="0px"
	 viewBox="0 0 2500 442" style="enable-background:new 0 0 2500 442;" xml:space="preserve">
<style type="text/css">
	.st0{fill:#034F9E;}
</style>
<g>
	<path class="st0" d="M1387.1,119.6C1371.2,28.5,1097.4,0,775.6,56.1c-135.1,23.5-257.1,58.2-352.2,97.3
		c14.6,0.3,25.4,3.7,32.1,10.2c5.1,5.1,7.7,12.2,7.7,21v9h-31.5v-8c0-6.6-4-10.8-11.1-10.8c-6,0-9.6,2.7-10.8,8
		c-0.3,1.5-0.4,4,0.2,6.3c3.4,13.8,50.2,22.3,55.3,47.9c0.7,3.3,1.5,10.3,0.1,20.3c-2.9,20.6-21,28.5-44,28.5
		c-32.1,0-45.1-15.2-45.1-36.2v-9.9h33.8l0.1,12.3c0,7,5,10.8,11.9,10.8c6.5,0,10.3-2.6,11.7-8c0.5-2.5,0.9-6.1-0.3-8.9
		c-6.3-15.7-50-23-55.4-48.4c-1.2-5.5-1.3-11.2-0.3-16.7c0.6-3.3,1.5-6.2,2.8-8.8c-105.4,49.3-167.1,103.5-158.9,150.3
		C237.6,413.6,511.3,442,833.1,386c141.4-24.7,268.6-61.5,365.4-102.8c-1.4,0.1-2.7,0.2-4.1,0.2c-22.1,0-41.8-8.2-43.7-30.7
		c-0.4-4.1-0.4-5.8-0.5-8.1l0.1-51.8c0-2.2,0.2-6.1,0.5-8.2c2.6-21.8,19.8-30.7,43.7-30.7c18.4,0,41,5.3,43.5,30.8
		c0.3,3.1,0.3,6.6,0.3,7.7v4.9h-31.9v-7.3c0-0.2-0.1-2.9-0.4-4.6c-0.6-2.6-2.8-8.6-11.9-8.6c-9,0-11.3,6-11.8,8.6
		c-0.3,1.9-0.5,3.8-0.4,5.8v56.3c0,1.9,0.1,3.5,0.2,4.6c0.1,0.8,1.8,8.6,12.2,8.6c10.4,0,12-7.8,12.1-8.6c0.3-1.5,0.3-3.4,0.3-4.6
		v-17.4H1194v-18.8h44.4v33.4c0,2.3,0,3.9-0.4,8.1c-0.5,5.4-2.3,10.6-5.3,15.2C1335.3,219.1,1395.1,165.7,1387.1,119.6 M552.6,281
		l-16.1-109.7h-0.6L519.4,281h-34.1l22.8-123.9h55.6L586.5,281H552.6z M716.3,281l-0.8-107.6H715L695,281h-32l-19.9-107.6h-0.6
		L641.8,281h-31.6l2.7-123.9h50.9l14.8,92.1h0.7l14.8-92.1h50.9l2.7,123.9L716.3,281z M865.3,257c-3.4,24-26.9,28.2-43.5,28.2
		c-27.6,0-44.7-11.8-44.7-35.8l0.1-9.8h33.4v12.2c0,6.6,4.7,10.6,11.9,10.6c6.4,0,10.2-2.6,11.5-7.9c0.6-2.4,0.9-6.1-0.2-8.8
		c-6.2-15.4-49.6-22.9-54.9-47.9c-1.2-5.5-1.3-11.1-0.3-16.6c3.6-22.6,25.4-27.3,42.9-27.3c15.7,0,27.1,3.4,33.9,10.3
		c5,5.1,7.6,12.1,7.6,20.8v9h-31.2V186c0-6.7-4.2-10.7-10.9-10.7c-6,0-9.6,2.7-10.8,7.9c-0.2,1.1-0.5,3.6,0.2,6.2
		c3.4,13.7,49.8,22.1,54.9,47.3C865.8,240.1,866.7,247,865.3,257 M981,245.8c0.1,2.3-0.2,6.9-0.3,8.2c-1.9,20.3-16.5,30.7-43.3,30.7
		s-41.5-10.4-43.4-30.7c-0.1-1.2-0.3-5.9-0.3-8.2v-88.7h31.9v91.5c0,2,0.1,3.5,0.3,4.6c0.4,2,2.4,8.7,11.4,8.7
		c9.1,0,11-6.6,11.5-8.7c0.2-1.1,0.2-2.6,0.2-4.6v-91.5H981L981,245.8L981,245.8z M1118.8,279.7h-44.4l-29.9-98.1h-0.5l1.6,98.1h-31
		V157.1h46.3l27.6,94.3h0.6l-1.6-94.3h31.2L1118.8,279.7L1118.8,279.7z M2034.2,315.7h29.1c42.8,0,58.6-16.3,58.6-73.3v-49.6
		c0-49.6-15.1-67.9-47.2-67.9h-40.5L2034.2,315.7z M2003.5,97.7h74.2c30.8,0,52.9,11.2,64.9,37.3c9.7,20.7,10.7,69.6,10.7,77.4
		c0,52.3-4.6,82.5-14.7,98.8c-13,21.1-37.5,31.6-79.7,31.6h-55.4L2003.5,97.7 M1865.2,271.1v7.1c0,33.3,20.7,43.7,40.4,43.7
		c24.4,0,43.2-10.4,43.2-39.7c0-54.2-108.4-48.1-108.4-121.8c0-43.3,30.4-66.5,70.9-66.5c44.1,0,68.8,21.8,66.9,71.6h-32.2
		c0.3-26.8-7.9-44.4-37.1-44.4c-18.5,0-37.2,9.5-37.2,35.9c0,53.8,108.3,46.1,108.3,123.7c0,51.5-35.1,68.1-74.9,68.1
		c-71.3,0.7-71.3-54.6-70.6-77.9H1865.2z M1556,92.7v131.5h32.3v-52.7h27.4v-26.9h-27.4V92.7H1556z M1557.2,316.3v-55h-89.8v55
		H1557.2z M1436.5,342.5V235h151.8v107.5H1436.5z M1807,92.7v131.5h-31.7v-52.7h-41.2v-26.8h40.6V92.7L1807,92.7z M1779.9,288.5
		c0-18.8-23.4-34-52.3-34c-28.9,0-52.3,15.3-52.3,34s23.4,34,52.3,34C1756.4,322.5,1779.9,307.3,1779.9,288.5z M1727.6,349.3
		c-46.6,0-84.2-27.2-84.2-60.9c0-33.6,37.7-60.9,84.2-60.9c46.5,0,84.1,27.3,84.1,60.9C1811.7,322.1,1774,349.3,1727.6,349.3
		 M1479.8,97.5c0,0-4.2,71.1,53.3,100.6l-16.6,22.9c0,0-42.2-27.9-51.8-58.4c-9.5,30.5-51.7,58.4-51.7,58.4l-16.5-22.9
		c57.7-29.4,53.4-100.6,53.4-100.6L1479.8,97.5z M1679.6,162.6c-9.5,30.5-48.2,56-48.2,56l-16.6-22.9c54.1-27.1,49.8-98.2,49.8-98.2
		h29.9c0,0-4.2,71.1,49.9,98.2l-16.6,22.9C1727.7,218.6,1689.1,193.1,1679.6,162.6L1679.6,162.6z M2180.6,97.7h31.8v244.2h-31.8
		V97.7z"/>
</g>
</svg>
