<svg width="60" height="16" viewBox="0 0 60 16" fill="none" xmlns="http://www.w3.org/2000/svg">
<path d="M30 -4.76837e-07C26.5333 -4.76837e-07 23.6 2.24 22.48 5.33333L16.1866 5.33333C15.0666 2.24 12.1333 -4.76837e-07 8.66663 -4.76837e-07C6.54489 -4.76837e-07 4.51006 0.842853 3.00977 2.34314C1.50948 3.84344 0.666626 5.87827 0.666626 8C0.666626 10.1217 1.50948 12.1566 3.00977 13.6569C4.51006 15.1571 6.54489 16 8.66663 16C12.1333 16 15.0666 13.76 16.1866 10.6667L22.5066 10.6667C23.6 13.76 26.5333 16 30 16C33.4666 16 36.4 13.76 37.52 10.6667L43.8133 10.6667C44.9333 13.76 47.8666 16 51.3333 16C53.455 16 55.4899 15.1571 56.9901 13.6569C58.4904 12.1566 59.3333 10.1217 59.3333 8C59.3333 5.87827 58.4904 3.84344 56.9901 2.34314C55.4899 0.842853 53.455 -4.76837e-07 51.3333 -4.76837e-07C47.8666 -4.76837e-07 44.9333 2.24 43.8133 5.33333H37.52C36.4 2.24 33.4666 -4.76837e-07 30 -4.76837e-07ZM5.99996 8C5.99996 7.29276 6.28091 6.61448 6.78101 6.11438C7.2811 5.61429 7.95938 5.33333 8.66663 5.33333C9.37387 5.33333 10.0521 5.61429 10.5522 6.11438C11.0523 6.61448 11.3333 7.29276 11.3333 8C11.3333 8.70724 11.0523 9.38552 10.5522 9.88562C10.0521 10.3857 9.37387 10.6667 8.66663 10.6667C7.95938 10.6667 7.2811 10.3857 6.78101 9.88562C6.28091 9.38552 5.99996 8.70724 5.99996 8ZM54 8C54 8.70724 53.719 9.38552 53.2189 9.88562C52.7188 10.3857 52.0405 10.6667 51.3333 10.6667C50.626 10.6667 49.9478 10.3857 49.4477 9.88562C48.9476 9.38552 48.6666 8.70724 48.6666 8C48.6666 7.29276 48.9476 6.61448 49.4477 6.11438C49.9478 5.61429 50.626 5.33333 51.3333 5.33333C52.0405 5.33333 52.7188 5.61429 53.2189 6.11438C53.719 6.61448 54 7.29276 54 8Z" fill="white"/>
</svg>
